<?xml version="1.0" encoding="UTF-8"?>
<svg id="Calque_2" xmlns="http://www.w3.org/2000/svg" version="1.1" viewBox="0 0 223 73">
  <!-- Generator: Adobe Illustrator 30.2.1, SVG Export Plug-In . SVG Version: 2.1.1 Build 1)  -->
  <defs>
    <style>
      .st0 {
        fill: #fff;
      }
    </style>
  </defs>
  <path class="st0" d="M4.04,22.38c1.41.81,3.11,1.22,5.1,1.22,1.24,0,2.39-.19,3.46-.57s1.99-.92,2.77-1.62c.7-.62,1.25-1.36,1.65-2.24.39-.87.6-1.82.62-2.83h-4.97c-.02.46-.12.89-.3,1.27-.18.39-.42.71-.71.96-.62.6-1.51.9-2.68.9-1.72,0-2.88-.67-3.5-2.01-.17-.41-.3-.89-.37-1.43-.08-.54-.12-1.22-.12-2.05s.04-1.45.12-1.97.21-1,.4-1.43c.29-.67.73-1.18,1.31-1.52s1.3-.51,2.14-.51c.58,0,1.08.07,1.49.21s.78.35,1.11.64c.65.6,1,1.42,1.06,2.45h4.94c-.02-1.05-.23-2.02-.63-2.93-.4-.91-.97-1.69-1.69-2.34-.77-.69-1.68-1.21-2.72-1.58s-2.17-.55-3.38-.55c-1.99,0-3.69.42-5.1,1.25s-2.45,2.01-3.14,3.54C.3,10.6,0,12.19,0,14.03s.3,3.43.9,4.79c.69,1.56,1.73,2.75,3.14,3.56Z"/>
  <rect class="st0" x="19.82" y="4.94" width="4.66" height="18.17"/>
  <polygon class="st0" points="30.11 23.11 34.77 23.11 34.77 8.78 38.66 8.78 38.66 4.94 26.2 4.94 26.2 8.78 30.11 8.78 30.11 23.11"/>
  <polygon class="st0" points="52.43 19.3 45.04 19.3 45.04 15.73 52.35 15.73 52.35 12.07 45.04 12.07 45.04 8.75 52.43 8.75 52.43 4.94 40.38 4.94 40.38 23.11 52.43 23.11 52.43 19.3"/>
  <polygon class="st0" points="50.86 0 46.43 0 43.88 3.73 47.9 3.73 50.86 0"/>
  <path class="st0" d="M72.26,21.96c1.36-.77,2.36-1.88,3-3.32.29-.62.51-1.3.64-2.06.14-.75.21-1.6.21-2.55s-.07-1.79-.21-2.55c-.14-.75-.35-1.44-.64-2.06-.64-1.44-1.63-2.55-3-3.32-1.36-.77-3.04-1.16-5.03-1.16h-7.67v18.17h7.67c1.99,0,3.67-.39,5.03-1.16h0ZM64.22,19.15v-10.24h2.26c1.1,0,1.99.18,2.66.55.68.37,1.19.92,1.53,1.66.17.36.29.78.36,1.25s.1,1.03.1,1.66-.03,1.18-.1,1.65c-.07.46-.19.87-.36,1.24-.33.74-.83,1.3-1.52,1.67-.69.38-1.58.57-2.68.57h-2.26,0Z"/>
  <polygon class="st0" points="90.42 23.11 203.93 23.11 203.93 21.87 90.42 21.87 90.42 19.3 83.03 19.3 83.03 15.73 90.34 15.73 90.34 12.07 83.03 12.07 83.03 8.75 90.42 8.75 90.42 4.94 78.37 4.94 78.37 21.87 78.37 23.11 78.37 23.11 90.42 23.11 90.42 23.11"/>
  <polygon class="st0" points=".57 28.39 .57 46.56 10.09 46.56 10.09 42.54 5.23 42.54 5.23 28.39 .57 28.39"/>
  <polygon class="st0" points="10.48 35.7 13.72 35.7 16.63 28.39 12.23 28.39 10.48 35.7"/>
  <path class="st0" d="M28.54,28.39h-6.95l-5.97,18.17h4.84l1.06-3.42h7.1l1.06,3.42h4.84l-5.97-18.17h-.01ZM22.6,39.63l2.45-7.88h.05l2.45,7.88h-4.95Z"/>
  <path class="st0" d="M49.73,36.52c.15-.36.27-.77.36-1.24.09-.46.13-.94.13-1.44,0-1.01-.16-1.9-.49-2.65-.86-1.87-2.73-2.81-5.61-2.81h-8.06v18.17h4.66v-7.26h.69l4.92,7.26h5.28l-5.28-7.41c1.68-.31,2.81-1.18,3.4-2.63h0ZM45.22,35.16c-.17.36-.46.63-.88.8-.41.17-.94.26-1.6.26h-2.03v-4.35h2.03c.65,0,1.18.08,1.6.23.41.15.7.41.88.77.15.31.23.69.23,1.13s-.08.85-.23,1.16Z"/>
  <path class="st0" d="M64.31,41.06c-.18.39-.42.71-.71.96-.62.6-1.51.9-2.68.9-1.72,0-2.88-.67-3.5-2.01-.17-.41-.3-.89-.37-1.43-.08-.54-.12-1.22-.12-2.05s.04-1.45.12-1.97c.08-.52.21-1,.4-1.43.29-.67.73-1.18,1.31-1.52s1.3-.51,2.14-.51c.58,0,1.08.07,1.49.21s.78.35,1.11.64c.65.6,1,1.42,1.06,2.45h4.94c-.02-1.05-.23-2.02-.63-2.93-.4-.91-.97-1.69-1.69-2.34-.77-.69-1.68-1.21-2.72-1.58s-2.17-.55-3.38-.55c-1.99,0-3.69.42-5.1,1.25s-2.45,2.01-3.14,3.54c-.6,1.36-.9,2.95-.9,4.79s.3,3.43.9,4.79c.69,1.56,1.73,2.75,3.14,3.56s3.11,1.22,5.1,1.22c1.24,0,2.39-.19,3.46-.57,1.07-.38,1.99-.92,2.77-1.62.7-.62,1.25-1.36,1.65-2.24.39-.87.6-1.82.62-2.83h-4.97c-.02.46-.12.89-.3,1.27Z"/>
  <polygon class="st0" points="76.39 39.32 83.03 39.32 83.03 46.56 87.69 46.56 87.69 28.39 83.03 28.39 83.03 35.49 76.39 35.49 76.39 28.39 71.73 28.39 71.73 46.56 76.39 46.56 76.39 39.32"/>
  <rect class="st0" x="90.5" y="28.39" width="4.66" height="18.17"/>
  <polygon class="st0" points="105.43 46.56 105.43 32.22 109.31 32.22 109.31 28.39 96.85 28.39 96.85 32.22 100.77 32.22 100.77 46.56 105.43 46.56"/>
  <polygon class="st0" points="123.06 32.2 123.06 28.39 111.01 28.39 111.01 46.56 123.06 46.56 123.06 42.75 115.67 42.75 115.67 39.17 122.98 39.17 122.98 35.52 115.67 35.52 115.67 32.2 123.06 32.2"/>
  <path class="st0" d="M142.46,39.79h-4.97c-.02.46-.12.89-.3,1.27-.18.39-.42.71-.71.96-.62.6-1.51.9-2.68.9-1.72,0-2.88-.67-3.5-2.01-.17-.41-.3-.89-.37-1.43-.08-.54-.12-1.22-.12-2.05s.04-1.45.12-1.97.21-1,.4-1.43c.29-.67.73-1.18,1.31-1.52s1.3-.51,2.14-.51c.58,0,1.08.07,1.49.21s.78.35,1.11.64c.65.6,1,1.42,1.06,2.45h4.94c-.02-1.05-.23-2.02-.63-2.93-.4-.91-.97-1.69-1.69-2.34-.77-.69-1.68-1.21-2.72-1.58-1.04-.37-2.17-.55-3.38-.55-1.99,0-3.69.42-5.1,1.25s-2.45,2.01-3.14,3.54c-.6,1.36-.9,2.95-.9,4.79s.3,3.43.9,4.79c.69,1.56,1.73,2.75,3.14,3.56,1.41.81,3.11,1.22,5.1,1.22,1.24,0,2.39-.19,3.46-.57s1.99-.92,2.77-1.62c.7-.62,1.25-1.36,1.65-2.24.39-.87.6-1.82.62-2.83h0Z"/>
  <polygon class="st0" points="151.76 46.56 151.76 32.22 155.64 32.22 155.64 28.39 143.18 28.39 143.18 32.22 147.1 32.22 147.1 46.56 151.76 46.56"/>
  <path class="st0" d="M157.03,28.39v11.69c0,1.6.27,2.91.82,3.94s1.39,1.79,2.54,2.29c1.14.5,2.6.75,4.39.75s3.28-.25,4.43-.75,2-1.26,2.56-2.28.84-2.34.84-3.95v-11.69h-4.66v11.38c0,1.08-.26,1.9-.77,2.45-.51.55-1.31.82-2.39.82s-1.82-.27-2.33-.82-.76-1.36-.76-2.45v-11.38h-4.67Z"/>
  <path class="st0" d="M188.77,36.52c.15-.36.27-.77.36-1.24.09-.46.13-.94.13-1.44,0-1.01-.16-1.9-.49-2.65-.86-1.87-2.73-2.81-5.61-2.81h-8.06v18.17h4.66v-7.26h.7l4.92,7.26h5.28l-5.28-7.41c1.68-.31,2.81-1.18,3.4-2.63h0ZM184.26,35.16c-.17.36-.46.63-.88.8-.41.17-.94.26-1.6.26h-2.03v-4.35h2.03c.65,0,1.18.08,1.6.23.41.15.7.41.88.77.15.31.23.69.23,1.13s-.08.85-.23,1.16Z"/>
  <polygon class="st0" points="203.93 32.2 203.93 28.39 191.88 28.39 191.88 46.56 203.93 46.56 203.93 42.75 196.54 42.75 196.54 39.17 203.85 39.17 203.85 35.52 196.54 35.52 196.54 32.2 203.93 32.2"/>
  <polygon class="st0" points=".57 70 12.61 70 12.61 66.19 5.23 66.19 5.23 62.61 12.54 62.61 12.54 58.96 5.23 58.96 5.23 55.64 12.61 55.64 12.61 51.83 .57 51.83 .57 70"/>
  <polygon class="st0" points="13.72 55.66 17.63 55.66 17.63 70 22.29 70 22.29 55.66 26.18 55.66 26.18 51.83 13.72 51.83 13.72 55.66"/>
  <path class="st0" d="M48.23,56.31c-.64-1.44-1.63-2.55-3-3.32-1.36-.77-3.04-1.16-5.03-1.16h-7.67v18.17h7.67c1.99,0,3.67-.39,5.03-1.16,1.36-.77,2.36-1.88,3-3.32.29-.62.51-1.3.64-2.06.14-.75.21-1.6.21-2.55s-.07-1.79-.21-2.55c-.14-.75-.35-1.44-.64-2.06h0ZM44.01,62.56c-.07.46-.19.87-.36,1.24-.33.74-.83,1.3-1.52,1.67-.69.38-1.58.57-2.68.57h-2.26v-10.24h2.26c1.1,0,1.99.18,2.66.55.68.37,1.19.92,1.53,1.66.17.36.29.78.36,1.25s.1,1.03.1,1.66-.03,1.18-.1,1.65h.01Z"/>
  <path class="st0" d="M61.85,63.21c0,1.08-.26,1.9-.77,2.45-.51.55-1.31.82-2.39.82s-1.82-.27-2.33-.82-.76-1.36-.76-2.45v-11.38h-4.66v11.69c0,1.6.27,2.91.82,3.94s1.39,1.79,2.54,2.29c1.14.5,2.6.75,4.39.75s3.28-.25,4.43-.75,2-1.26,2.56-2.28.84-2.34.84-3.95v-11.69h-4.66v11.38h0Z"/>
  <path class="st0" d="M87.54,57.44c0-1.1-.17-2.06-.51-2.88-.41-.94-1.09-1.63-2.02-2.07-.94-.44-2.13-.66-3.59-.66h-7.93v18.17h4.66v-6.98h3.27c1.44,0,2.63-.24,3.56-.72.94-.48,1.62-1.19,2.05-2.14.34-.82.51-1.73.51-2.73h0ZM82.54,58.62c-.17.36-.46.62-.88.79-.41.16-.94.24-1.57.24h-1.96v-4.35h1.93c.67,0,1.21.08,1.61.23.4.15.69.41.86.77.14.36.21.75.21,1.16s-.07.8-.21,1.16h0Z"/>
  <path class="st0" d="M92.2,51.83l-5.97,18.17h4.84l1.06-3.42h7.1l1.06,3.42h4.84l-5.97-18.17h-6.96ZM93.2,63.08l2.45-7.88h.05l2.45,7.88h-4.95Z"/>
  <polygon class="st0" points="103.6 55.66 107.51 55.66 107.51 70 112.17 70 112.17 55.66 116.06 55.66 116.06 51.83 103.6 51.83 103.6 55.66"/>
  <path class="st0" d="M131.32,59.96c.15-.36.27-.77.36-1.24.09-.46.13-.94.13-1.44,0-1.01-.16-1.9-.49-2.65-.86-1.87-2.73-2.81-5.61-2.81h-8.06v18.17h4.66v-7.26h.7l4.92,7.26h5.28l-5.28-7.41c1.68-.31,2.81-1.18,3.4-2.63h0ZM126.81,58.6c-.17.36-.46.63-.88.8-.41.17-.94.26-1.6.26h-2.03v-4.35h2.03c.65,0,1.18.08,1.6.23.41.15.7.41.88.77.15.31.23.69.23,1.13s-.08.85-.23,1.16Z"/>
  <rect class="st0" x="134.33" y="51.83" width="4.66" height="18.17"/>
  <polygon class="st0" points="151.88 62.77 147.1 51.83 141.69 51.83 141.69 70 146.09 70 146.09 58.96 150.85 70 152.89 70 157.65 58.96 157.65 70 162.05 70 162.05 51.83 156.67 51.83 151.88 62.77"/>
  <path class="st0" d="M178.36,52.56c-1.4-.81-3.08-1.22-5.06-1.22s-3.66.41-5.07,1.24c-1.41.82-2.45,1.99-3.11,3.5-.62,1.42-.93,3.04-.93,4.84,0,1.03.1,1.99.31,2.9.21.9.51,1.7.9,2.41.69,1.37,1.7,2.43,3.05,3.17s2.96,1.11,4.85,1.11,3.65-.4,5.04-1.21,2.42-1.96,3.09-3.45c.63-1.42.95-3.06.95-4.92s-.31-3.43-.93-4.89c-.67-1.49-1.7-2.65-3.1-3.46v-.02ZM177.31,62.77c-.09.51-.22.99-.41,1.42-.31.7-.76,1.24-1.35,1.62-.59.38-1.34.57-2.25.57-1.75,0-2.95-.73-3.6-2.19-.19-.43-.33-.9-.41-1.42-.09-.51-.13-1.13-.13-1.85s.04-1.39.12-1.89c.08-.51.21-.97.4-1.4.65-1.44,1.86-2.16,3.63-2.16s2.94.72,3.63,2.16c.19.45.32.93.4,1.44s.12,1.13.12,1.85-.04,1.34-.13,1.85h-.02Z"/>
  <rect class="st0" x="184.52" y="51.83" width="4.66" height="18.17"/>
  <polygon class="st0" points="203.72 63.05 196.54 51.83 191.88 51.83 191.88 70 196.41 70 196.41 58.8 203.54 70 208.25 70 208.25 51.83 203.72 51.83 203.72 63.05"/>
  <polygon class="st0" points="223 55.64 223 51.83 210.95 51.83 210.95 70 223 70 223 66.19 215.61 66.19 215.61 62.61 222.92 62.61 222.92 58.96 215.61 58.96 215.61 55.64 223 55.64"/>
</svg>