<svg xmlns="http://www.w3.org/2000/svg" xmlns:xlink="http://www.w3.org/1999/xlink" viewBox="0 0 379.92 167.87"><defs><style>.cls-1{fill:none;}.cls-2{clip-path:url(#clip-path);}.cls-3,.cls-4{fill:#fff;}.cls-4{font-size:20px;font-family:Helvetica-Light, Helvetica;}.cls-5{letter-spacing:0em;}</style><clipPath id="clip-path" transform="translate(-1.75)"><polygon class="cls-1" points="246 5.78 0 5.78 0 168.64 46.64 168.64 46.64 100.32 148.44 100.32 148.44 168.64 246 168.64 246 5.78"/></clipPath></defs><title>logo-title-white-big</title><g id="Livello_2" data-name="Livello 2"><g id="Livello_1-2" data-name="Livello 1"><g class="cls-2"><path class="cls-3" d="M218.37,5.87V124.76L163.05,6.56H140.7l-1.76,4.54L93.71,127.94,45.79,6.56h-24v138c0,15.07-2.06,18.94-14.15,18.94H1.75v3.66H25.47V21.62h.46L82.52,163.53h2L142.74,13.62l3.77,9.75,66,144.5H222v-146c0-9.36,1.83-12.33,11.86-12.33h10V5.87Z" transform="translate(-1.75)"/></g><text class="cls-4" transform="translate(254.54 17.18)">museo <tspan class="cls-5"><tspan x="0" y="18.39">archeologico</tspan></tspan><tspan x="0" y="36.78">nazionale</tspan><tspan x="0" y="55.16">di napoli</tspan></text></g></g></svg>