<?xml version="1.0" encoding="utf-8"?>
<!-- Generator: Adobe Illustrator 19.0.0, SVG Export Plug-In . SVG Version: 6.00 Build 0)  -->
<svg version="1.1" id="圖層_1" xmlns="http://www.w3.org/2000/svg" xmlns:xlink="http://www.w3.org/1999/xlink" x="0px" y="0px"
	 viewBox="0 0 13.4868698 2.05879" style="enable-background:new 0 0 13.4868698 2.05879;" xml:space="preserve">
<g id="XMLID_1_">
	<g id="XMLID_10_">
		<polygon id="XMLID_67_" points="1.5462826,0.3748691 1.5457441,0.3631413 1.5446671,0.3520586 1.5427314,0.3403304 
			1.5411174,0.3284946 1.5395036,0.31752 1.5364909,0.3064374 1.5334781,0.2952472 1.5304655,0.2845952 1.5271293,0.2737277 
			1.5230412,0.2625375 1.519275,0.2518855 1.5154018,0.241341 1.5099133,0.2303659 1.5047499,0.2196064 1.4995847,0.2097071 
			1.4935592,0.1991626 1.4873188,0.1891562 1.4818302,0.1794724 1.4750528,0.1700037 1.4678437,0.1601048 1.4608495,0.1506361 
			1.4539639,0.1424587 1.4468614,0.1337436 1.4386852,0.124813 1.4305073,0.1168506 1.4223295,0.1085657 1.4136149,0.1008188 
			1.4051136,0.0931791 1.3963988,0.0861854 1.3870373,0.0791917 1.377784,0.0721976 1.3685309,0.0663877 1.3584173,0.0598241 
			1.3479804,0.0534757 1.3378651,0.0476657 1.3272132,0.0422855 1.3168845,0.0370133 1.3062325,0.0329248 1.2959023,0.0282982 
			1.284605,0.0241017 1.273953,0.0200132 1.2636226,0.0165699 1.2518953,0.0135572 1.2407048,0.010652 1.2300527,0.0081774 
			1.2185403,0.0060254 1.2068113,0.003981 1.1956223,0.0024746 1.1844318,0.0012913 1.1721659,0.0007532 1.1606519,0 1.1489245,0 
			0,0 0,0.4074713 1.1469871,0.4074713 1.1469871,0.5563859 0,0.5563859 0,0.9639652 1.5476798,0.9639652 1.5476798,0.3987557 
			1.5468194,0.3865973 		"/>
		<polygon id="XMLID_66_" points="2.0651608,0.0000427 2.0528932,0.0006883 2.0411656,0.0012264 2.0299752,0.0025177 
			2.0181394,0.0040241 2.0069504,0.0060685 1.9960817,0.0082201 1.9848927,0.0106951 1.9731637,0.0136003 1.9621899,0.016613 
			1.9515362,0.0199484 1.9403473,0.0240373 1.9296952,0.0283409 1.919365,0.0329679 1.908713,0.0370564 1.898276,0.0422211 
			1.8881625,0.0477084 1.8778322,0.0534112 1.8671802,0.0598672 1.8572817,0.0664304 1.8480285,0.0721332 1.8384519,0.0792344 
			1.8291986,0.0862285 1.8199455,0.0932222 1.8117676,0.1008615 1.803483,0.1086088 1.7945516,0.1167862 1.7865905,0.1248561 
			1.7794881,0.1336787 1.7718487,0.1425018 1.7642094,0.1506792 1.7571086,0.1600404 1.7508681,0.1700468 1.7437656,0.1795155 
			1.7377402,0.1891993 1.7320381,0.1990981 1.7260128,0.2096426 1.7202024,0.219649 1.7150373,0.230409 1.7104107,0.2412761 
			1.7063226,0.2518207 1.7019111,0.2624731 1.6986833,0.2736632 1.695132,0.2846379 1.6915824,0.2952903 1.6885698,0.3064805 
			1.6864173,0.3175627 1.6839415,0.3284302 1.6820058,0.340266 1.6811455,0.3521017 1.6798534,0.3631839 1.6787781,0.3749122 
			1.6781328,0.3866404 1.6781328,0.3987988 1.6781328,0.9639003 3.226136,0.9639003 3.226136,0.5563215 2.0785019,0.5563215 
			2.0785019,0.4075144 3.226136,0.4075144 3.226136,0.0000427 2.0763495,0.0000427 		"/>
		<polygon id="XMLID_65_" points="0.0000016,1.5026188 1.1469887,1.5026188 1.1469887,1.6514263 0.0000016,1.6514263 
			0.0000016,2.05879 1.1489261,2.05879 1.1606535,2.05879 1.1721675,2.0582519 1.1844335,2.0576062 1.195624,2.0563149 
			1.2068129,2.0545936 1.218542,2.0530872 1.2300544,2.0507202 1.2407063,2.0482457 1.2518969,2.0460935 1.2636243,2.0430808 
			1.2739546,2.0394225 1.2846066,2.0354414 1.2959039,2.0313525 1.3062341,2.026726 1.3168862,2.021884 1.3272147,2.0167191 
			1.3378668,2.0112319 1.3479819,2.0061746 1.3584189,1.9997191 1.3685324,1.9930481 1.3777857,1.9866996 1.3870389,1.9797059 
			1.3964005,1.9727122 1.4051151,1.9658257 1.4136149,1.9582939 1.4223312,1.950547 1.430509,1.9421545 1.4386852,1.9346228 
			1.4468631,1.9259071 1.4539639,1.9170841 1.4608512,1.9083686 1.4678453,1.8995459 1.4749461,1.8896466 1.4818319,1.880501 
			1.4873204,1.8696339 1.4935609,1.8603803 1.4995863,1.8498358 1.5047499,1.8391837 1.509915,1.8287468 1.5154035,1.8180947 
			1.5192765,1.8078728 1.5230428,1.7965752 1.527131,1.7858151 1.530467,1.774948 1.5334798,1.7638655 1.5364925,1.7532134 
			1.5395052,1.7413776 1.5411191,1.7304026 1.5427331,1.7186747 1.5446687,1.7074846 1.5457457,1.6957563 1.5462826,1.6841357 
			1.5468211,1.6730534 1.5476815,1.6607871 1.5476815,1.09504 0.0000016,1.09504 		"/>
		<polygon id="XMLID_64_" points="1.6781754,1.6607547 1.6781754,1.673021 1.6787124,1.6841036 1.6797893,1.6957239 
			1.6811882,1.7074522 1.6820484,1.7186422 1.6838775,1.7303705 1.6863517,1.7413452 1.6886108,1.753181 1.6916251,1.763833 
			1.695068,1.7749156 1.6986176,1.7857832 1.7019538,1.7966503 1.7063652,1.8078403 1.7104534,1.8180623 1.71508,1.8287144 
			1.7202451,1.8392588 1.7259471,1.8499112 1.7319741,1.8603482 1.7376761,1.869709 1.7437016,1.880469 1.7508024,1.8896147 
			1.7571512,1.899621 1.7642521,1.9083365 1.7718914,1.9170517 1.7795308,1.9259824 1.7866331,1.9346979 1.7944876,1.9422296 
			1.8035257,1.9505146 1.8117036,1.9582618 1.8198798,1.9657936 1.8292413,1.9727873 1.8384945,1.9796735 1.8480712,1.9866675 
			1.8573245,1.9931232 1.8671162,1.9996867 1.8777682,2.0062501 1.8882052,2.0113075 1.8983186,2.0166872 1.908649,2.0219593 
			1.9193009,2.0266936 1.9297379,2.0313201 1.94039,2.035409 1.9515789,2.0393901 1.9622326,2.0430484 1.9730997,2.046061 
			1.984827,2.0483208 1.9960177,2.0507953 2.0069931,2.0530548 2.018182,2.0545616 2.029911,2.0563905 2.0411,2.0575743 
			2.052829,2.0582194 2.0652018,2.0587575 2.0763922,2.0587575 3.2260704,2.0587575 3.2260704,1.6515014 2.0785446,1.6515014 
			2.0785446,1.5025867 3.2260704,1.5025867 3.2260704,1.0950075 1.6781754,1.0950075 		"/>
	</g>
	<g id="XMLID_2_">
		<g id="XMLID_12_">
			<g id="XMLID_6_">
				<polygon id="XMLID_63_" points="4.0407476,1.4668536 3.6130474,1.4668536 3.6130474,1.5617549 3.7761641,1.5617549 
					3.7761641,2.0388417 3.8779528,2.0388417 3.8779528,1.5617549 4.0407476,1.5617549 				"/>
				<path d="M4.1237674,1.8297799l0.0737038-0.268563l0.0740256,0.268563H4.1237674z M4.1409831,1.4668536L3.9598954,2.0388417
					h0.1070588l0.0335717-0.1227685h0.1947513L4.328845,2.0388417h0.106524L4.2551413,1.4668536H4.1409831z"/>
				<rect id="XMLID_60_" x="4.4840484" y="1.4668639" width="0.1070589" height="0.571988"/>
				<path d="M4.9506989,1.6576992l-0.0013986,0.012912L4.9458556,1.6829847l-0.004735,0.0116208L4.9354172,1.7059031
					L4.928318,1.7163401L4.9203553,1.7244099l-0.00947,0.0077469L4.9002333,1.7378596l-0.0104356,0.004196L4.8786073,1.7449609
					L4.8668785,1.7462522H4.7562699V1.557096h0.1106086l0.0117288,0.0010757l0.0111904,0.002367l0.0104356,0.0047346
					l0.0106521,0.0051647l0.00947,0.0077468L4.928318,1.5869005l0.0070992,0.010437l0.0057034,0.0108671l0.004735,0.0114052
					l0.0034447,0.0130194l0.0013986,0.0121584V1.6576992z M5.0490432,1.6219769L5.0465674,1.6092807L5.0438781,1.5970144
					L5.0403252,1.5850711L5.0362372,1.5729127L5.0310721,1.5617225l-0.005487-0.0112976L5.019238,1.540203L5.0121355,1.5301965
					l-0.007638-0.0093611l-0.007102-0.0082849L4.9892159,1.5043731L4.9805012,1.4972718L4.9712477,1.4909234L4.9616728,1.4850055
					L4.9517727,1.4802713L4.9416595,1.4755372L4.9313293,1.4722015L4.9212155,1.4697268L4.9103498,1.4681129L4.8991594,1.4668217
					H4.8890429H4.6538377v0.5719876h0.1024323V1.8397542h0.1327729h0.0101166L4.9103498,1.838678l0.0108657-0.0019364
					L4.9313293,1.834697l0.0103302-0.0036583l0.0101132-0.003981l0.0099001-0.0047342l0.0095749-0.0058104l0.0092535-0.0066711
					l0.0087147-0.0076393l0.0081797-0.0075318l0.007102-0.0081774l0.007638-0.0093611L5.019238,1.7671261L5.0255852,1.756151
					l0.005487-0.0104369l0.0051651-0.0118358l0.0040879-0.0117278l0.0035529-0.0117283l0.0026894-0.0126965l0.0024757-0.0124815
					l0.0019341-0.0121584l0.0005383-0.0130194V1.6470473L5.0509772,1.6343508L5.0490432,1.6219769z"/>
				<polygon id="XMLID_57_" points="5.2169704,1.78404 5.4584179,1.78404 5.4584179,1.6870949 5.2169704,1.6870949 
					5.2169704,1.5587312 5.4939237,1.5587312 5.4939237,1.466843 5.1120625,1.466843 5.1120625,2.0388305 5.4969378,2.0388305 
					5.4969378,1.9440377 5.2169704,1.9440377 				"/>
				<rect id="XMLID_56_" x="5.5543189" y="1.4668639" width="0.1067371" height="0.571988"/>
			</g>
			<g id="XMLID_7_">
				<polygon id="XMLID_55_" points="6.1479664,2.038852 6.2523327,2.038852 6.2523327,1.7953594 6.4806557,1.7953594 
					6.4806557,1.7017493 6.2523327,1.7017493 6.2523327,1.5587525 6.5161643,1.5587525 6.5161643,1.4668643 6.1479664,1.4668643 
									"/>
				<rect id="XMLID_54_" x="6.5835967" y="1.4668639" width="0.1065204" height="0.571988"/>
				<polygon id="XMLID_53_" points="7.0683107,1.8527303 6.852252,1.466886 6.7430425,1.466886 6.7430425,2.0388741 
					6.8501015,2.0388741 6.8501015,1.646574 7.0661564,2.0388741 7.1748309,2.0388741 7.1748309,1.466886 7.0683107,1.466886 				
					"/>
				<polygon id="XMLID_52_" points="7.3334951,1.78404 7.5749421,1.78404 7.5749421,1.6870949 7.3334951,1.6870949 
					7.3334951,1.5587312 7.6106648,1.5587312 7.6106648,1.466843 7.2294474,1.466843 7.2294474,2.0388305 7.6128154,2.0388305 
					7.6128154,1.9440377 7.3334951,1.9440377 				"/>
			</g>
			<g id="XMLID_8_">
				<path d="M8.2939386,1.8297799l0.0737076-0.268563l0.0738087,0.268563H8.2939386z M8.3106194,1.4668536L8.1300697,2.0388417
					h0.1065207l0.034215-0.1227685h0.194108l0.0341063,0.1227685h0.106307L8.4251022,1.4668536H8.3106194z"/>
				<path d="M8.9491444,1.6917642l-0.008502,0.0100069L8.93225,1.7091954L8.9223528,1.7156509L8.9122362,1.7198473
					L8.9010487,1.7228601L8.8893194,1.7239358H8.7600937V1.5541472h0.1292257L8.9010487,1.555331l0.0111876,0.0029052
					l0.0101166,0.004734L8.93225,1.5692109l0.0083923,0.0076393l0.008502,0.0093611l0.0060253,0.0107596L8.959796,1.6081611
					l0.0032282,0.0120512l0.0019369,0.0129116v0.0121584L8.9630241,1.6577637L8.959796,1.6700296L8.9551697,1.6811123
					L8.9491444,1.6917642z M9.0638437,2.0206895L9.0608292,2.0106831L9.0599689,2.0008917L9.0487785,1.8731736L9.0469494,1.8616608
					L9.0439348,1.8486413L9.0398474,1.8368056l-0.004735-0.0109746L9.0288734,1.8152864L9.0223093,1.8053871L9.0143471,1.7958113
					L9.005415,1.7882791L8.9955187,1.7812854L8.9860487,1.77526L8.9747524,1.7713865L8.9638844,1.7678357L8.9526939,1.7661144
					l0.0111904-0.0017219l0.0108681-0.0035504l0.0112963-0.004089l0.00947-0.0040885l0.0104351-0.0064559l0.0092535-0.0071013
					l0.0090399-0.0075318l0.0079622-0.0087155l0.007638-0.0094687l0.007102-0.0098989L9.0526533,1.692948l0.0054865-0.0118357
					l0.0040884-0.0110826l0.0035496-0.0122659l0.0021544-0.0124815L9.069869,1.6331239l0.0010738-0.0129116L9.0704041,1.6074079
					L9.0693312,1.5955725L9.0668545,1.582876L9.0638437,1.5705022L9.0602913,1.5587739L9.0558815,1.5476912L9.0499611,1.5366091
					L9.0436134,1.5267098l-0.0073156-0.010114L9.0283346,1.5072347L9.0198336,1.4990573L9.0105801,1.4920636l-0.0092525-0.006456
					L8.9908915,1.4796897L8.9807787,1.4750631L8.9695873,1.4715123L8.9583969,1.4693607L8.9480667,1.4674238L8.9363375,1.4668857
					H8.6558323v0.571988h0.1042614V1.8099062h0.0983438L8.8694143,1.81109L8.879528,1.8128114l0.0106525,0.0037659
					l0.0103302,0.004519l0.0095749,0.0059179l0.0081758,0.0069941l0.0079632,0.0087152l0.0073156,0.0094687l0.0057039,0.0100064
					l0.0052729,0.0104369l0.0035496,0.0110826l0.0026894,0.0124815l0.0008602,0.0114051L8.959796,2.0096073l0.0016127,0.0098989
					l0.0027971,0.0098989l0.0043049,0.0094686h0.1043701L9.0679321,2.0301583L9.0638437,2.0206895z"/>
				<polygon id="XMLID_47_" points="9.122282,1.5617546 9.2856121,1.5617546 9.2856121,2.0388417 9.3871841,2.0388417 
					9.3871841,1.5617546 9.5499792,1.5617546 9.5499792,1.4668536 9.122282,1.4668536 				"/>
				<polygon id="XMLID_46_" points="10.0125742,1.8364723 10.0100985,1.8247445 10.006546,1.8129086 10.0019197,1.801826 
					9.9964323,1.7907435 9.9907322,1.780737 9.9836292,1.770085 9.9762058,1.7608314 9.968029,1.752654 9.9590979,1.7444766 
					9.9497366,1.7368371 9.9399443,1.7303816 9.9303694,1.7243558 9.9193926,1.7198367 9.9090652,1.7162863 9.8984137,1.7134887 
					9.8863621,1.711014 9.875494,1.7086465 9.8643036,1.7059568 9.8533297,1.7034823 9.8413868,1.7004691 9.83041,1.6982096 
					9.8197575,1.695735 9.808032,1.6929374 9.7968416,1.6904627 9.7858639,1.6875576 9.7749987,1.6851904 9.762948,1.6822853 
					9.7526178,1.6800258 9.7419653,1.6771206 9.732604,1.6713103 9.7238894,1.6635634 9.7167864,1.6547403 9.7116213,1.6444108 
					9.7075338,1.6338664 9.705061,1.6213853 9.705061,1.6092266 9.7066736,1.5982519 9.7102232,1.5862011 9.7153883,1.5756562 
					9.7222738,1.566941 9.7309914,1.5587636 9.7403498,1.5528457 9.75068,1.5482191 9.7604723,1.5447758 9.7711239,1.5416555 
					9.7823143,1.5401492 9.7929668,1.5395036 9.8039408,1.5395036 9.8151312,1.5406873 9.8257828,1.5424088 9.8364353,1.545314 
					9.8467655,1.5492949 9.8566656,1.5547823 9.8661318,1.5617763 9.874095,1.5699538 9.8806591,1.5786688 9.8863621,1.5892137 
					9.8904505,1.6008341 9.8937864,1.6120242 9.8948603,1.6242906 9.9953585,1.6242906 9.9942818,1.6114861 9.9926662,1.5993277 
					9.9896555,1.5862011 9.9861059,1.5741498 9.9822311,1.5629597 9.9768524,1.5503712 9.9715786,1.5395036 9.9650145,1.5294971 
					9.9582376,1.5189527 9.9502745,1.5095916 9.9418821,1.5003383 9.9333801,1.4926986 9.9241276,1.4850593 9.9142303,1.4787112 
					9.9035788,1.4721477 9.8937864,1.4674135 9.8822708,1.4627866 9.8716192,1.4604194 9.8615055,1.4574068 9.8503151,1.4551471 
					9.8389111,1.4539639 9.8284721,1.4523495 9.8172855,1.4517043 9.806633,1.4511662 9.7952261,1.4511662 9.7845736,1.4517043 
					9.7735996,1.4527801 9.762948,1.4539639 9.7526178,1.4556853 9.7414274,1.4581599 9.7309914,1.4604194 9.7195845,1.4633245 
					9.7096872,1.4668754 9.6990356,1.4702108 9.6887054,1.4750528 9.6791267,1.4808632 9.6692305,1.4867806 9.659977,1.4938823 
					9.6512623,1.5014141 9.6436214,1.5095916 9.6359835,1.5189527 9.6288815,1.528959 9.6226387,1.5389655 9.6168308,1.5492949 
					9.6111269,1.560485 9.6077909,1.5716752 9.6045628,1.5838336 9.6013346,1.5962075 9.5996141,1.6081508 9.5988626,1.6208473 
					9.5988626,1.6331133 9.5990763,1.645272 9.6010132,1.6582911 9.6031637,1.670557 9.6072521,1.6822853 9.6111269,1.6940136 
					9.6168308,1.7049886 9.6231775,1.7162863 9.6301718,1.7256471 9.6384563,1.7350082 9.6463108,1.7431856 9.6553507,1.7508249 
					9.6651421,1.7567428 9.6750393,1.7626607 9.6859074,1.7670723 9.6968813,1.7708381 9.7080717,1.7738509 9.7189407,1.7765406 
					9.7295933,1.7795533 9.7414274,1.7825661 9.7526178,1.7852561 9.762948,1.7882688 9.7749987,1.7907435 9.7858639,1.7934335 
					9.7965164,1.7966614 9.8074932,1.799459 9.8192196,1.8022566 9.8298712,1.8053769 9.840848,1.8083895 9.852252,1.8110796 
					9.8637648,1.8147376 9.874095,1.8180734 9.8836699,1.8247445 9.8923883,1.8322762 9.8994875,1.8421751 9.9049768,1.8533652 
					9.9076662,1.8648784 9.9096041,1.878005 9.908205,1.8901634 9.9055128,1.9025373 9.901103,1.9136199 9.8943214,1.9240569 
					9.8861456,1.9329875 9.8768921,1.9394431 9.8667793,1.945899 9.8566656,1.9516019 9.8462267,1.956336 9.8350363,1.9597793 
					9.8247089,1.962792 9.8129807,1.9645134 9.8011427,1.9652666 9.7908163,1.9645134 9.7787647,1.9634372 9.7675743,1.9610702 
					9.7567053,1.9576273 9.7460537,1.9527853 9.7361565,1.947513 9.7266865,1.9406267 9.7189407,1.9329875 9.7121601,1.9240569 
					9.7059212,1.9136199 9.7004347,1.9025373 9.6968813,1.8913472 9.6947308,1.8791888 9.6941919,1.8668149 9.5914383,1.8668149 
					9.5933723,1.8797264 9.5955267,1.8918853 9.5988626,1.9043663 9.6020899,1.9165251 9.6067171,1.9282529 9.6108046,1.9394431 
					9.6168308,1.9510638 9.6231775,1.9616083 9.6301718,1.9721527 9.6375961,1.981514 9.6460972,1.9908746 9.6534128,1.9996978 
					9.662775,2.0074446 9.6722412,2.0144386 9.6823578,2.0206792 9.692255,2.0267045 9.7029066,2.0318694 9.7132368,2.036711 
					9.7238894,2.0400467 9.7348633,2.0435977 9.7465925,2.0460722 9.7572441,2.0482242 9.7689734,2.0500531 9.7801638,2.0512369 
					9.7918892,2.0524201 9.8028669,2.0524201 9.8145924,2.0524201 9.8257828,2.051775 9.8366518,2.0506988 9.8487024,2.0488698 
					9.8596764,2.0463948 9.8705454,2.0443509 9.8820572,2.041338 9.8929234,2.0378947 9.9035788,2.0331607 9.9142303,2.0288568 
					9.9248829,2.0231538 9.9349957,2.0174515 9.9445715,2.0101347 9.953824,2.0033562 9.9628639,1.9950712 9.9708271,1.9854949 
					9.9784641,1.9761337 9.9855671,1.96645 9.9921312,1.9552598 9.9980478,1.9440696 10.0029964,1.9329875 10.0070848,1.9206136 
					10.0106373,1.9083476 10.0131102,1.8965119 10.0147257,1.8849987 10.0150471,1.8726252 10.0150471,1.860359 
					10.0141869,1.8479854 				"/>
			</g>
			<g id="XMLID_9_">
				<polygon id="XMLID_45_" points="10.7958183,1.8668038 10.6868219,1.4668643 10.5363998,1.4668643 10.5363998,2.0388525 
					10.6314077,2.0388525 10.6314077,1.6156715 10.7450304,2.0388525 10.8474627,2.0388525 10.9616241,1.6156715 
					10.9616241,2.0388525 11.0527573,2.0388525 11.0527573,1.4668643 10.9031982,1.4668643 				"/>
				<polygon id="XMLID_44_" points="11.4283104,1.8643506 11.4277725,1.8780158 11.4252968,1.8901742 11.4212084,1.902548 
					11.4155045,1.9136301 11.4091578,1.9240671 11.4013033,1.9340739 11.3925886,1.9411752 11.3837652,1.9482768 
					11.3741865,1.953549 11.3643951,1.9586062 11.3537436,1.9622645 11.3434162,1.9645241 11.3327637,1.9658149 
					11.3223257,1.9664606 11.3111353,1.9652773 11.3004827,1.9628023 11.2906914,1.9592519 11.2807941,1.9552705 
					11.2707863,1.949568 11.2614241,1.942897 11.2532482,1.935903 11.2461452,1.9275104 11.2399073,1.9182572 11.233881,1.908358 
					11.2297935,1.8986741 11.2262402,1.8873764 11.2246284,1.8760787 11.2239809,1.8643506 11.2239809,1.466886 
					11.1227312,1.466886 11.1227312,1.879199 11.12327,1.8918955 11.1245604,1.9036238 11.1262836,1.9161052 11.128973,1.9275104 
					11.1325226,1.9388081 11.137475,1.9505364 11.1426363,1.9616189 11.1478014,1.9721634 11.1543655,1.9815242 
					11.1614676,1.9908854 11.1696444,1.9997084 11.177824,2.0079935 11.1861086,2.0144489 11.1953611,2.02069 11.2054749,2.0267153 
					11.2158051,2.0324178 11.2259188,2.0370448 11.2363539,2.0418863 11.2472229,2.046083 11.2573366,2.0482349 
					11.2690649,2.0517852 11.2802563,2.0542603 11.2914467,2.0557666 11.3018818,2.0575957 11.313611,2.0582414 
					11.3248014,2.0587795 11.3357754,2.0587795 11.3475046,2.0575957 11.358695,2.0563045 11.3690214,2.0552285 
					11.380537,2.0530765 11.3919411,2.0500638 11.4031315,2.0470512 11.4132452,2.043608 11.4238977,2.0394118 
					11.4345493,2.0348928 11.444663,2.0294051 11.4545631,2.0237026 11.4640303,2.0174618 11.4733915,2.0101454 
					11.4810324,2.0025055 11.4892082,1.993898 11.4959888,1.9839993 11.503088,1.9739923 11.5091143,1.963986 11.5137405,1.9527959 
					11.5184755,1.9411752 11.5219202,1.929985 11.5247173,1.9176116 11.5271902,1.9055607 11.5284834,1.8937249 
					11.5284834,1.8810284 11.5284834,1.466886 11.4283104,1.466886 				"/>
				<polygon id="XMLID_43_" points="12.0072708,1.8364723 12.0051165,1.8247445 12.0007067,1.8129086 11.9969406,1.801826 
					11.9916668,1.7907435 11.9856415,1.780737 11.9786472,1.770085 11.9709015,1.7608314 11.963047,1.752654 11.9543324,1.7444766 
					11.9452925,1.7368371 11.9351788,1.7303816 11.925065,1.7243558 11.9147348,1.7198367 11.9037609,1.7162863 
					11.8928928,1.7134887 11.8817024,1.711014 11.8704062,1.7086465 11.8592157,1.7059568 11.8474865,1.7034823 
					11.8368349,1.7004691 11.8254309,1.6982096 11.8139153,1.695735 11.80305,1.6929374 11.7920761,1.6904627 11.7808857,1.6875576 
					11.7691565,1.6851904 11.7585039,1.6822853 11.7469921,1.6800258 11.7371998,1.6771206 11.7272997,1.6713103 
					11.7189074,1.6635634 11.711483,1.6547403 11.7057829,1.6444108 11.7016907,1.6338664 11.6995401,1.6213853 
					11.6995401,1.6092266 11.7011557,1.5982519 11.7047052,1.5862011 11.7107306,1.5756562 11.7175083,1.566941 
					11.725688,1.5587636 11.734724,1.5528457 11.7450542,1.5482191 11.7554893,1.5447758 11.7666807,1.5416555 
					11.7767935,1.5401492 11.7879848,1.5395036 11.7988529,1.5395036 11.8095055,1.5406873 11.8204794,1.5424088 
					11.831131,1.545314 11.8414612,1.5492949 11.8513613,1.5547823 11.8606148,1.5617763 11.868577,1.5699538 11.8756762,1.5786688 
					11.8808413,1.5892137 11.8857899,1.6008341 11.888483,1.6120242 11.8898811,1.6242906 11.9900551,1.6242906 
					11.988656,1.6114861 11.9873619,1.5993277 11.9845648,1.5862011 11.9810152,1.5741498 11.9769268,1.5629597 
					11.9717617,1.5503712 11.9662752,1.5395036 11.9591722,1.5294971 11.9523945,1.5189527 11.9452925,1.5095916 
					11.9371166,1.5003383 11.9277544,1.4926986 11.9185019,1.4850593 11.908926,1.4787112 11.8988094,1.4721477 
					11.8879442,1.4674135 11.8778305,1.4627866 11.8663149,1.4604194 11.8556633,1.4574068 11.8444757,1.4551471 
					11.8341455,1.4539639 11.8229551,1.4523495 11.8125162,1.4517043 11.8018646,1.4511662 11.7909985,1.4511662 
					11.7794867,1.4517043 11.7691565,1.4527801 11.757966,1.4539639 11.7469921,1.4556853 11.7355843,1.4581599 
					11.725688,1.4604194 11.7144976,1.4633245 11.7041674,1.4668754 11.6942673,1.4702108 11.6836147,1.4750528 
					11.673501,1.4808632 11.6637096,1.4867806 11.6555338,1.4938823 11.6462803,1.5014141 11.6379957,1.5095916 
					11.6303549,1.5189527 11.6232557,1.528959 11.6173353,1.5389655 11.6115265,1.5492949 11.6069002,1.560485 11.602273,1.5716752 
					11.5987206,1.5838336 11.5962477,1.5962075 11.5946321,1.6081508 11.5932331,1.6208473 11.5926952,1.6331133 
					11.5932331,1.645272 11.5954924,1.6582911 11.5978603,1.670557 11.6014128,1.6822853 11.6063614,1.6940136 
					11.6115265,1.7049886 11.6180906,1.7162863 11.6244373,1.7256471 11.6326141,1.7350082 11.6413317,1.7431856 
					11.6500463,1.7508249 11.6596212,1.7567428 11.6699514,1.7626607 11.680604,1.7670723 11.6915779,1.7708381 
					11.7022295,1.7738509 11.7134199,1.7765406 11.7251492,1.7795533 11.7355843,1.7825661 11.7469921,1.7852561 
					11.7585039,1.7882688 11.7691565,1.7907435 11.779808,1.7934335 11.7912121,1.7966614 11.80305,1.799459 11.8133802,1.8022566 
					11.824892,1.8053769 11.8362961,1.8083895 11.8469486,1.8110796 11.858139,1.8147376 11.869113,1.8180734 11.8789043,1.8247445 
					11.8868675,1.8322762 11.8945084,1.8421751 11.8996735,1.8533652 11.903223,1.8648784 11.9042997,1.878005 
					11.9037609,1.8901634 11.9007473,1.9025373 11.8952599,1.9136199 11.8890181,1.9240569 11.8803034,1.9329875 
					11.8715887,1.9394431 11.8616886,1.945899 11.8513613,1.9516019 11.8412447,1.956336 11.8300571,1.9597793 11.8188667,1.962792 
					11.8071375,1.9645134 11.7967024,1.9652666 11.7846518,1.9645134 11.7737827,1.9634372 11.7628088,1.9610702 
					11.7514019,1.9576273 11.7409668,1.9527853 11.7314968,1.947513 11.7221346,1.9406267 11.7139587,1.9329875 
					11.7066431,1.9240569 11.700079,1.9136199 11.6956654,1.9025373 11.6924381,1.8913472 11.6899652,1.8791888 
					11.6888885,1.8668149 11.5864563,1.8668149 11.587533,1.8797264 11.5900059,1.8918853 11.5926952,1.9043663 
					11.5971079,1.9165251 11.6011963,1.9282529 11.6063614,1.9394431 11.6115265,1.9510638 11.6180906,1.9616083 
					11.6244373,1.9721527 11.6317539,1.981514 11.640255,1.9908746 11.649291,1.9996978 11.6576843,2.0074446 11.6667242,2.0144386 
					11.6765156,2.0206792 11.6871681,2.0267045 11.6970644,2.0318694 11.7082548,2.036711 11.7194452,2.0400467 
					11.7303143,2.0435977 11.7409668,2.0460722 11.7521572,2.0482242 11.7639914,2.0500531 11.7748594,2.0512369 
					11.786047,2.0524201 11.7977762,2.0524201 11.808753,2.0524201 11.8204794,2.051775 11.83253,2.0506988 11.8428602,2.0488698 
					11.8549109,2.0463948 11.8657799,2.0443509 11.8769674,2.041338 11.8874054,2.0378947 11.8982744,2.0331607 
					11.908926,2.0288568 11.9195786,2.0231538 11.9294748,2.0174515 11.9395885,2.0101347 11.948842,2.0033562 
					11.9570217,1.9950712 11.9657364,1.9854949 11.9733772,1.9761337 11.9804764,1.96645 11.9868269,1.9552598 
					11.9922056,1.9440696 11.9971542,1.9329875 12.0017805,1.9206136 12.0056553,1.9083476 12.008131,1.8965119 
					12.0099602,1.8849987 12.0102816,1.8726252 12.0102816,1.860359 12.0092049,1.8479854 				"/>
				<polygon id="XMLID_42_" points="12.1741409,1.78404 12.415801,1.78404 12.415801,1.6870949 12.1741409,1.6870949 
					12.1741409,1.5587312 12.451849,1.5587312 12.451849,1.466843 12.0700932,1.466843 12.0700932,2.0388305 12.4541082,2.0388305 
					12.4541082,1.9440377 12.1741409,1.9440377 				"/>
				<polygon id="XMLID_41_" points="12.812376,1.8643506 12.8115129,1.8780158 12.8090401,1.8901742 12.8055954,1.902548 
					12.7995701,1.9136301 12.7937613,1.9240671 12.7855816,1.9340739 12.7768669,1.9411752 12.7678308,1.9482768 
					12.7580395,1.953549 12.7489996,1.9586062 12.7381334,1.9622645 12.7276955,1.9645241 12.7170429,1.9658149 
					12.7067127,1.9664606 12.6955223,1.9652773 12.6848707,1.9628023 12.6752949,1.9592519 12.6648598,1.9552705 
					12.6550684,1.949568 12.6460285,1.942897 12.6376352,1.935903 12.6302109,1.9275104 12.6239729,1.9182572 12.6181602,1.908358 
					12.6140728,1.8986741 12.6110611,1.8873764 12.6094456,1.8760787 12.6089077,1.8643506 12.6089077,1.466886 
					12.5070133,1.466886 12.5070133,1.879199 12.5075521,1.8918955 12.5084124,1.9036238 12.5103493,1.9161052 
					12.5130386,1.9275104 12.5165882,1.9388081 12.5215397,1.9505364 12.5267019,1.9616189 12.5324059,1.9721634 
					12.5384312,1.9815242 12.5455332,1.9908854 12.55371,1.9997084 12.5618896,2.0079935 12.5707121,2.0144489 12.5794268,2.02069 
					12.5895405,2.0267153 12.5998707,2.0324178 12.6105232,2.0370448 12.6204195,2.0418863 12.6316099,2.046083 
					12.6422625,2.0482349 12.6525927,2.0517852 12.6643219,2.0542603 12.6755123,2.0557666 12.6859474,2.0575957 
					12.6973543,2.0582414 12.7088671,2.0587795 12.7205925,2.0587795 12.731245,2.0575957 12.7429743,2.0563045 
					12.7539473,2.0552285 12.7651386,2.0530765 12.7757902,2.0500638 12.7873058,2.0470512 12.7970943,2.043608 
					12.8085012,2.0394118 12.8191538,2.0348928 12.8295889,2.0294051 12.8391676,2.0237026 12.8480949,2.0174618 
					12.8576736,2.0101454 12.8658495,2.0025055 12.8732738,1.993898 12.8803768,1.9839993 12.8874788,1.9739923 
					12.8931789,1.963986 12.898345,1.9527959 12.9032927,1.9411752 12.9063072,1.929985 12.909318,1.9176116 12.9109335,1.9055607 
					12.9126549,1.8937249 12.9126549,1.8810284 12.9126549,1.466886 12.812376,1.466886 				"/>
				<polygon id="XMLID_40_" points="13.3369894,1.4668536 13.2304659,1.8667935 13.1209307,1.4668536 12.9712639,1.4668536 
					12.9712639,2.0388417 13.0649815,2.0388417 13.0649815,1.6156613 13.1788206,2.0388417 13.2810364,2.0388417 
					13.3951979,1.6156613 13.3951979,2.0388417 13.4868698,2.0388417 13.4868698,1.4668536 				"/>
			</g>
		</g>
		<g id="XMLID_3_">
			<g id="XMLID_4_">
				<polygon id="XMLID_39_" points="5.4693294,0.1921792 5.0911226,0.1921792 5.0911226,0.3714365 5.4693294,0.3714365 
					5.4693294,0.9873244 5.0911226,0.9873244 5.0911226,1.1676575 5.5302272,1.1676575 5.5394802,1.1676575 5.5485201,1.1670119 
					5.5566964,1.1655055 5.5648723,1.1636765 5.5730519,1.1606638 5.5813365,1.1576507 5.5889773,1.1543154 5.5971537,1.1501188 
					5.6044698,1.1455998 5.6115718,1.1401125 5.6181359,1.1341946 5.6239448,1.1290299 5.6304002,1.1224663 5.6356735,1.1160108 
					5.6410522,1.1085865 5.6457872,1.1010548 5.6498752,1.0938456 5.6534281,1.0855606 5.6566558,1.0773832 5.6585898,1.0690982 
					5.6602054,1.0603827 5.6621428,1.0522052 5.6626816,1.0433826 5.6632166,1.034667 5.6632166,0.0013015 5.4693294,0.0013015 				
					"/>
				<polygon id="XMLID_38_" points="6.3489695,0.9872919 5.9713016,0.9872919 5.9713016,0.3714045 6.3489695,0.3714045 
					6.3489695,0.1921472 5.9713016,0.1921472 5.9713016,0.0012695 5.7768722,0.0012695 5.7768722,1.0346351 5.7768722,1.0434581 
					5.778163,1.0521733 5.7793484,1.0603507 5.7814989,1.0690662 5.7839746,1.0774587 5.786664,1.0856361 5.7907519,1.0938135 
					5.7948403,1.1010227 5.7997918,1.1085545 5.8049536,1.1160862 5.8095837,1.1224344 5.8152843,1.1289979 5.8218479,1.1342701 
					5.8289504,1.1400805 5.8360496,1.1455678 5.8429384,1.1500869 5.8511147,1.1542833 5.8587527,1.1577266 5.8669319,1.1607393 
					5.8756466,1.1637521 5.8833928,1.1654735 5.8921108,1.1669798 5.9008255,1.1676254 5.909862,1.1676254 6.3489695,1.1676254 				
					"/>
			</g>
			<polygon id="XMLID_37_" points="7.2294374,0.0012691 7.0352216,0.0012691 7.0352216,0.1276964 6.5032601,0.1276964 
				6.5032601,0.2776869 7.0352216,0.2776869 7.0352216,0.3273971 6.5032601,0.3273971 6.5032601,1.1706377 6.6976891,1.1706377 
				6.6976891,0.47728 7.0352216,0.47728 7.0352216,1.1706377 7.2294374,1.1706377 7.2294374,0.47728 7.5582552,0.47728 
				7.5582552,1.0212926 7.2919507,1.0212926 7.2919507,1.1706377 7.6193695,1.1706377 7.628406,1.1706377 7.6363688,1.1694545 
				7.6450834,1.1681632 7.6537981,1.1664417 7.6626215,1.1642897 7.6704788,1.1611694 7.6781168,1.1570805 7.6855412,1.1530995 
				7.693182,1.1483654 7.7002811,1.1429852 7.7073836,1.1379285 7.7130871,1.1319031 7.7187877,1.1259851 7.7245994,1.1190985 
				7.7294397,1.1121049 7.734066,1.1043581 7.738801,1.096073 7.7425675,1.0891865 7.7445049,1.0810091 7.7475157,1.0721865 
				7.7494531,1.0640091 7.7505302,1.0558316 7.7516074,1.047116 7.7516074,1.0381855 7.7516074,0.3273971 7.5795593,0.3273971 
				7.2294374,0.3273971 7.2294374,0.2776869 7.7516074,0.2776869 7.7516074,0.1276964 7.2294374,0.1276964 			"/>
			<path d="M8.6440401,1.0213035H8.3870983l-0.124814-0.75415h0.506031L8.6440401,1.0213035z M9.1498585,1.0213035H8.8702087
				l0.1244917-0.75415h0.155158V0.1177007H8.6323118V0.0012802H8.4023762v0.1164205H7.8846197v0.1494528h0.1545076
				l0.1253519,0.75415H7.8846197v0.1493453h1.2652388V1.0213035z"/>
			<g id="XMLID_5_">
				<polygon id="XMLID_34_" points="12.3262539,0.1961281 12.3393784,0.195698 12.3521843,0.1946218 12.3647709,0.1926852 
					12.3765001,0.1909638 12.3893061,0.1885963 12.4010315,0.1857991 12.4130821,0.1822483 12.4248114,0.1794506 
					12.4360018,0.1752546 12.447731,0.1709506 12.4583836,0.1657859 12.4688187,0.1607287 12.4791489,0.1545957 
					12.489584,0.1488929 12.4986238,0.142975 12.507555,0.1357663 12.5163784,0.1287722 12.5253067,0.1213479 12.5332689,0.1287722 
					12.5417709,0.1357663 12.5507021,0.142975 12.5600605,0.1488929 12.5707121,0.1545957 12.5799656,0.1607287 
					12.5914812,0.1657859 12.6023464,0.1709506 12.6127853,0.1752546 12.6247272,0.1794506 12.63624,0.1822483 
					12.6476469,0.1857991 12.6602335,0.1885963 12.6725006,0.1909638 12.6848736,0.1926852 12.6971416,0.1946218 
					12.7099438,0.195698 12.7225332,0.1961281 12.7353363,0.1967738 12.8230286,0.1967738 12.8230286,0.0678723 
					12.7353363,0.0678723 12.7115593,0.0646445 12.6907911,0.0598024 12.674222,0.0551758 12.6602335,0.0493654 
					12.6485071,0.0439856 12.6403284,0.0382828 12.6334419,0.0335487 12.628602,0.0282764 12.6250496,0.0230042 
					12.6227903,0.0189152 12.6215,0.0153648 12.6215,0.0012695 12.5253067,0.0012695 12.4276094,0.0012695 12.4276094,0.0153648 
					12.4267492,0.0189152 12.4242725,0.0230042 12.420723,0.0282764 12.4158802,0.0335487 12.4093161,0.0382828 
					12.3999577,0.0439856 12.3893061,0.0493654 12.3751011,0.0551758 12.3582096,0.0598024 12.3377666,0.0646445 
					12.3139868,0.0678723 12.2262945,0.0678723 12.2262945,0.1967738 12.3139868,0.1967738 				"/>
				<path d="M13.3003836,0.9662243h-0.2219753v-0.165162h0.2219753V0.9662243z M13.0784082,0.4017684h0.2219753v0.0796219
					h-0.2219753V0.4017684z M13.3287897,0.6078172l0.0087147-0.0006452l0.0084982-0.0003231l0.0087185-0.0019365
					l0.0079594-0.0016143l0.0090399-0.0024746l0.0075321-0.0033353l0.0074244-0.0035508l0.0084982-0.004304l0.0076408-0.0046266
					l0.007102-0.0047341l0.0060253-0.0058104l0.0067778-0.0057028l0.0057039-0.0065635l0.0054865-0.0063481l0.0051651-0.0077468
					l0.0047321-0.0071017l0.0040913-0.0074242l0.0040884-0.0081775l0.0024757-0.0082849l0.0021505-0.0081775l0.0024757-0.0081774
					l0.0010738-0.008285l0.0010767-0.0085V0.4745041V0.2764174h-0.5773668v0.8942422h0.4449158h0.0087147l0.0084982-0.0011837
					l0.0087185-0.0012913l0.0079594-0.0017215l0.0090399-0.0022595l0.0075321-0.0031203l0.0074244-0.0040889l0.0084982-0.003981
					l0.0076408-0.0046266l0.007102-0.0053797l0.0060253-0.0051647l0.0067778-0.0059179l0.0057039-0.0059179l0.0054865-0.0069937
					l0.0051651-0.0068866l0.0047321-0.0078543l0.0040913-0.0081775l0.0040884-0.0068861l0.0024757-0.0082849l0.0021505-0.0087155
					l0.0024757-0.0081774l0.0010738-0.0081775l0.0010767-0.0087155V1.0382068V0.6753886h-0.3828325V0.6078172H13.3287897z"/>
				<path d="M12.3880253,0.5986933h0.2734032v0.070046h-0.2734032V0.5986933z M12.3880253,0.4017898h0.2734032v0.0709067h-0.2734032
					V0.4017898z M12.6987667,1.1706809l0.0090361-0.0011834l0.0083933-0.0012913l0.0079622-0.0017214l0.0081768-0.0022596
					l0.0087147-0.0031202l0.0079622-0.0040889l0.0079632-0.003981l0.007102-0.0046266l0.0067778-0.0054877l0.0067778-0.0050569
					l0.0068884-0.0059179l0.0057011-0.0059178l0.0046263-0.0069941l0.0054865-0.0068861l0.0044136-0.0078545l0.0043049-0.0081774
					l0.0040884-0.0069941l0.0027971-0.0081774l0.0024757-0.0087152l0.0023642-0.0081774l0.0011854-0.0081774l0.0002136-0.0087155
					l0.000864-0.0089307V0.8589712h-0.1617212V1.021336h-0.2732954V0.794628h0.3020229h0.0087185l0.0090361-0.0010758
					l0.0083933-0.0010762l0.0079622-0.0024747l0.0081768-0.002367l0.0087147-0.0030127l0.0079622-0.0032282l0.0079632-0.0047341
					l0.007102-0.0047342l0.0067778-0.0052723l0.0067778-0.0048421l0.0068884-0.0058103l0.0057011-0.0063481l0.0046263-0.0071017
					l0.0054865-0.0068861l0.0044136-0.0073167l0.0043049-0.0074238l0.0040884-0.0081775l0.0027971-0.0082853l0.0024757-0.0087152
					l0.0023642-0.0076393l0.0011854-0.0088231l0.0002136-0.008823l0.000864-0.0087155V0.2764391h-0.2015324V0.2078995H12.427619
					v0.0685396h-0.2013149v0.8942418h0.4637442H12.6987667z"/>
				<polygon id="XMLID_27_" points="13.0518665,0.1722308 13.2927752,0.1722308 13.2927752,0.2244156 13.4612741,0.2244156 
					13.4612741,0.0504305 13.2569447,0.0504305 13.2569447,0.0012589 13.0876942,0.0012589 13.0876942,0.0504305 
					12.8839064,0.0504305 12.8839064,0.2244156 13.0518665,0.2244156 				"/>
				<polygon id="XMLID_26_" points="12.8833914,0.1827429 12.8833914,0.2243832 12.8839264,0.2243832 				"/>
			</g>
			<polygon id="XMLID_25_" points="10.5557699,1.1646661 10.564806,1.166065 10.5740595,1.1670336 10.5827742,1.1676792 
				10.5914888,1.1676792 10.5997763,1.1688626 10.6079531,1.1694007 10.6161289,1.1700463 10.6243086,1.170692 
				10.6243086,1.0276947 10.6120405,1.0265114 10.5997763,1.0252202 10.588047,1.0241439 10.575675,1.02253 10.5634069,1.0213467 
				10.5516777,1.0201629 10.5394135,1.0189797 10.5265026,1.0170426 10.5150957,1.0155363 10.5028315,1.0137069 
				10.4904556,1.0113399 10.4785128,1.0089728 10.4662485,1.0072514 10.4538727,1.0048842 10.4421434,1.0018716 
				10.4298792,0.9993966 10.4178286,0.9967068 10.4058857,0.9936941 10.3943729,0.991004 10.3821058,0.9879913 
				10.3709154,0.9849786 10.3594027,0.9815354 10.347352,0.977985 10.3361616,0.9743266 10.3252926,0.9703452 10.314105,0.9662567 
				10.3036671,0.9615226 10.2924767,0.9574336 10.2812862,0.9526995 10.2709589,0.9480729 10.2608423,0.9433383 
				10.2501898,0.9379585 10.2400761,0.9327938 10.2302847,0.9270914 10.2209234,0.9210656 10.2111349,0.9153632 
				10.2018814,0.9094453 10.1928415,0.9028817 10.1841269,0.8959956 10.1756258,0.888894 10.1665888,0.8820078 
				10.1589479,0.8750141 10.1513109,0.8673748 10.1428089,0.85952 10.1360321,0.8514501 10.1283913,0.8425195 10.1220436,0.8344501 
				10.1158018,0.825627 10.1092377,0.8164809 10.1032124,0.8070126 10.0975122,0.798297 10.0923471,0.787645 10.087182,0.7777461 
				10.0824471,0.7672017 10.6294737,0.7672017 10.6294737,0.6429264 10.0824471,0.6429264 10.0824471,0.5826721 
				10.6294737,0.5826721 10.6294737,0.4585043 10.0824471,0.4585043 10.0824471,0.39825 10.6294737,0.39825 10.6294737,0.2741902 
				10.0824471,0.2741902 10.0824471,0.2140431 10.6294737,0.2140431 10.6294737,0.0897682 10.37393,0.0897682 10.4118032,0.0012153 
				10.160347,0.0012153 10.1225824,0.0897682 9.7875223,0.0897682 9.749649,0.0012153 9.4983015,0.0012153 9.5366049,0.0897682 
				9.30581,0.0897682 9.30581,0.2140431 9.8528337,0.2140431 9.8528337,0.2741902 9.30581,0.2741902 9.30581,0.39825 
				9.8528337,0.39825 9.8528337,0.4585043 9.30581,0.4585043 9.30581,0.5826721 9.8528337,0.5826721 9.8528337,0.6429264 
				9.30581,0.6429264 9.30581,0.7672017 9.8437967,0.7672017 9.8421812,0.7713977 9.8366947,0.7814045 9.8315296,0.7911958 
				9.826581,0.8010947 9.8205557,0.8098102 9.8139915,0.8193861 9.8074274,0.8281016 9.8006506,0.8368171 9.7935476,0.8444564 
				9.7864456,0.8525263 9.7788076,0.8607038 9.7708454,0.8683431 9.7626686,0.8756598 9.7544889,0.8824384 9.7454529,0.8895396 
				9.7367344,0.8959956 9.7274818,0.9028817 9.7187672,0.9089072 9.7091923,0.91461 9.6990786,0.9205279 9.6891785,0.9258001 
				9.6791735,0.9316105 9.6692734,0.9370978 9.6584044,0.9415094 9.6477518,0.9468892 9.637639,0.9504399 9.6266651,0.9550666 
				9.6154747,0.9598007 9.6046057,0.9639972 9.5934181,0.9673325 9.5813675,0.9716365 9.5703907,0.9749722 9.5586615,0.9785227 
				9.5472574,0.9820734 9.5355282,0.9849786 9.5234776,0.9873457 9.511426,0.9901434 9.4993753,0.9931561 9.4879713,0.9955232 
				9.4753819,0.9979978 9.4639778,1.0002573 9.451602,1.0026248 9.4387999,1.0048842 9.4272871,1.0067133 9.4148064,1.0089728 
				9.4024305,1.0106943 9.3907042,1.011878 9.378437,1.0137069 9.365634,1.0155363 9.3535833,1.0168276 9.3413153,1.0177959 
				9.329051,1.0189797 9.3175354,1.0201629 9.30581,1.0213467 9.30581,1.170692 9.3196898,1.1694007 9.3349686,1.1682169 
				9.3498173,1.1676792 9.3642349,1.166065 9.3789749,1.1646661 9.3929634,1.1630522 9.4077034,1.1611156 9.4215832,1.1589637 
				9.4357853,1.1567042 9.4497738,1.1548748 9.4639778,1.1524001 9.4775333,1.149495 9.4911995,1.147343 9.505188,1.1442227 
				9.5183125,1.1412101 9.5316572,1.1384124 9.5447817,1.1355072 9.5581264,1.1326025 9.5715761,1.1296973 9.5838404,1.1260389 
				9.5969677,1.1224881 9.6097708,1.1190448 9.6211777,1.1154944 9.6343021,1.1121587 9.6463537,1.1078547 9.6584044,1.1037662 
				9.6698112,1.1003228 9.6815405,1.0961268 9.6930532,1.0928986 9.704565,1.0880569 9.7162943,1.084076 9.7266216,1.0792339 
				9.737812,1.0752529 9.74825,1.0703033 9.7585773,1.0657842 9.7690163,1.0611576 9.7793465,1.0570687 9.7894602,1.0521195 
				9.7987127,1.0476004 9.8086128,1.0428659 9.8178663,1.0377015 9.8276548,1.0330745 9.8364782,1.0276947 9.8448706,1.02253 
				9.8539104,1.018334 9.8618736,1.0130618 9.8695107,1.0080045 9.8779039,1.0026248 9.8860798,0.9972445 9.8938293,0.9920803 
				9.9006071,0.9867001 9.9068489,0.9820734 9.9142733,0.9768012 9.9210501,0.9710984 9.9276142,0.965611 9.933423,0.9604464 
				9.9393435,0.9550666 9.9446135,0.9493638 9.9497786,0.9445221 9.9549437,0.9392498 9.9601088,0.9333319 9.9650574,0.9282748 
				9.973772,0.9370978 9.9822731,0.9455978 9.9907751,0.9539908 10.0007801,0.9627059 10.0101414,0.9710984 10.0193949,0.9785227 
				10.0298328,0.9855167 10.0393,0.9931561 10.0494137,1.0006878 10.0600653,1.0080045 10.0705042,1.0148907 10.0808344,1.0213467 
				10.091486,1.0276947 10.1026735,1.0341507 10.1136513,1.0401762 10.1250544,1.0464166 10.1360321,1.0521195 
				10.1477575,1.0576068 10.1589479,1.0627716 10.1704607,1.0679362 10.1824064,1.0728859 10.1944571,1.0780506 
				10.2059698,1.0828923 10.2173738,1.0874113 10.2297459,1.0921454 10.2414751,1.0955888 10.253418,1.0997852 
				10.2654686,1.1037662 10.2771978,1.1078547 10.2889271,1.111513 10.3009777,1.1149563 10.3130283,1.1185071 10.3252926,1.12195 
				10.3367004,1.1249627 10.3487511,1.1285136 10.3602629,1.1312037 10.3727446,1.1337857 10.3837185,1.1361529 
				10.3954468,1.139058 10.407176,1.1412101 10.4181499,1.1436846 10.4293404,1.145514 10.4410696,1.1477735 10.4517221,1.1500331 
				10.4629126,1.15197 10.4737778,1.1535839 10.4850769,1.1555204 10.4951897,1.1570268 10.5055208,1.1582105 10.5161724,1.1600395 
				10.5259638,1.1611156 10.535861,1.162299 10.5459776,1.1636978 			"/>
			<g id="XMLID_11_">
				<path d="M3.8774996,0.3900295h0.9099512v0.0532606H3.8774996V0.3900295z M3.7204082,0.4204793l0.0019341,0.0082854
					l0.0021541,0.0075318l0.0035496,0.0081774l0.0035496,0.0081774l0.0040915,0.008285l0.0046265,0.0074243l0.0052702,0.0067786
					l0.0053818,0.0068862l0.0058088,0.0059179l0.0057034,0.0062405l0.0073159,0.0053798l0.0068858,0.0052723l0.0076411,0.0040889
					l0.0076377,0.0040885L3.8001378,0.516564l0.0081761,0.0036584l0.0081763,0.002152l0.0082846,0.0017214l0.0078576,0.0019369
					l0.0090365,0.0003226l0.0092533,0.0007532h0.9632115l0.0088229-0.0007532l0.0089316-0.0003226l0.0079627-0.0019369
					l0.0090365-0.0017214l0.0076408-0.002152L4.8647046,0.516564l0.0078545-0.0035508l0.0076408-0.0040885l0.0077462-0.0040889
					l0.0071025-0.0052723L4.901504,0.4941837l0.0063472-0.0062405l0.0057034-0.0059179l0.0060258-0.0068862l0.0051651-0.0067786
					l0.0040879-0.0074243l0.0040879-0.008285L4.936471,0.4444739l0.0035529-0.0081774l0.0024729-0.0075318l0.0017238-0.0082854
					l0.0016122-0.0087151L4.946588,0.4030486l0.0003219-0.0088231V0.3064263H3.7179325v0.0877993l0.0005386,0.0088231v0.0087155
					L3.7204082,0.4204793z"/>
				<path d="M4.0817404,0.7746366h0.4817157V0.829296H4.0817404V0.7746366z M4.9998713,1.0845168H4.4334774V1.0419083h0.4994674
					V0.9586281H4.4334774V0.9234437H4.630918h0.0081758L4.6478119,0.92226l0.0088234-0.0011833l0.0083895-0.002152
					L4.6724491,0.91645l0.0081792-0.0030127l0.0081763-0.0033357l0.0081797-0.0041965l0.0076375-0.004519l0.0065641-0.0054873
					L4.7182884,0.890734l0.0063472-0.0058103l0.0057034-0.0065631l0.005487-0.006456L4.7409911,0.865126L4.745079,0.8574866
					l0.0040884-0.0082849l0.0040879-0.0076398l0.0030146-0.0077468l0.0021505-0.0087156l0.0024757-0.0081774L4.76197,0.8080994
					l0.0005388-0.0082853l0.0005383-0.0086076V0.6804888H3.8825793v0.1107177v0.0086076l0.0011821,0.0082853l0.0010772,0.0088227
					L3.887311,0.8250995l0.0023675,0.0087156l0.0030143,0.0077468L3.896029,0.8492017l0.0046268,0.0082849L3.9050655,0.865126
					L3.909692,0.8719046l0.0057037,0.006456l0.0057037,0.0065631L3.92766,0.890734l0.0071025,0.0051647l0.0063472,0.0054873
					l0.0076411,0.004519l0.0076377,0.0041965l0.0081794,0.0033357L3.972744,0.91645l0.0076411,0.0024747l0.0087147,0.002152
					L3.9979229,0.92226l0.0087147,0.0011837h0.0081763h0.2015314v0.0351843H3.7051494v0.0832802h0.5111959v0.0426085H3.638978
					v0.0831732h1.3608932V1.0845168z"/>
				<polygon id="XMLID_20_" points="4.2240062,0.1727796 3.7240007,0.1727796 3.7179751,0.1727796 3.7179751,0.2560602 
					4.9468441,0.2560602 4.9468441,0.1727796 4.4411349,0.1727796 4.4411349,0.1265131 5.0116167,0.1265131 5.0116167,0.0429098 
					4.4411349,0.0429098 4.4411349,0.0012695 4.2240062,0.0012695 4.2240062,0.0429098 3.6524475,0.0429098 3.6524475,0.1265131 
					4.2240062,0.1265131 				"/>
				<polygon id="XMLID_19_" points="3.8345697,0.645369 4.8111224,0.645369 4.8111224,0.9158689 4.8038068,0.9234011 
					4.9938226,0.9234011 4.9938226,0.550576 3.6513309,0.550576 3.6513309,0.9234011 3.8345697,0.9234011 				"/>
			</g>
			<g id="XMLID_13_">
				<rect id="XMLID_18_" x="11.6145277" y="0.0370022" width="0.1125458" height="0.1194332"/>
				<polygon id="XMLID_17_" points="11.6331425,0.4399975 11.6331425,0.863824 11.6331425,0.8694189 11.6336775,0.8750141 
					11.6342163,0.8788876 11.6356153,0.8844824 11.6372309,0.8895396 11.6391678,0.8944892 11.6413183,0.8989008 
					11.6437941,0.9034199 11.6468058,0.9082615 11.6494951,0.9123505 11.6533699,0.9164389 11.6565971,0.9200974 
					11.6601467,0.9234326 11.6642351,0.927091 11.6683264,0.9298887 11.6729527,0.9327938 11.6776848,0.935376 
					11.6823111,0.9374204 11.6874762,0.9392498 11.6924276,0.9409713 11.6970549,0.9422625 11.70222,0.9428002 
					11.7073812,0.9433383 11.7128716,0.943984 11.8491974,0.943984 11.8491974,0.8240127 11.7666702,0.8240127 
					11.7666702,0.4399975 				"/>
				<polygon id="XMLID_16_" points="11.2338686,0.943317 11.2393551,0.9427793 11.2445202,0.9422412 11.2494688,0.9409499 
					11.2543087,0.9392285 11.2584,0.9373995 11.2638874,0.935355 11.2685137,0.9327725 11.2723846,0.9299753 11.2770119,0.9270701 
					11.2814245,0.9234117 11.2849741,0.920076 11.2882023,0.9164176 11.2917547,0.9123291 11.2942276,0.9082406 
					11.2969198,0.903506 11.3002529,0.898987 11.3018684,0.8944679 11.3038063,0.8895183 11.305418,0.8844615 11.3064957,0.8788663 
					11.3075724,0.8751003 11.3075724,0.8695055 11.3081074,0.8638027 11.3081074,0.4399765 11.1749048,0.4399765 
					11.1749048,0.8239917 11.0923777,0.8239917 11.0923777,0.9439626 11.2287035,0.9439626 				"/>
				<rect id="XMLID_15_" x="11.7538681" y="0.0012798" width="0.3167668" height="0.1264269"/>
				<polygon id="XMLID_14_" points="12.0987587,0.2536176 11.7537985,0.2536176 11.7537985,0.1978824 11.5793829,0.1978824 
					11.5793829,0.001302 11.3622541,0.001302 11.3622541,0.1978824 11.201932,0.1978824 11.2030087,0.1908887 11.2040863,0.1840021 
					11.2054844,0.1776541 11.2060204,0.1704449 11.2065582,0.1634512 11.2076359,0.1565651 11.2081738,0.1494635 
					11.2084961,0.1424698 11.0767965,0.1424698 11.0831442,0.132463 11.0886345,0.122026 11.0940123,0.111374 11.0986395,0.1013676 
					11.1033745,0.0908231 11.1074619,0.079848 11.1104736,0.0690884 11.1140261,0.0578983 11.1167154,0.0470308 
					11.118866,0.0353025 11.1213417,0.024758 11.1232796,0.0130298 11.1252165,0.001302 10.9620972,0.001302 10.9610233,0.0124921 
					10.9590855,0.0233592 10.9563961,0.0334736 10.9533825,0.0440181 10.9492941,0.0540245 10.9443455,0.0646769 
					10.9391804,0.073392 10.9334764,0.0832913 10.9276686,0.0918989 10.9206743,0.1008295 10.9127111,0.1085763 
					10.9047489,0.1161081 10.8965721,0.1231022 10.8878546,0.1294503 10.8786011,0.1352606 10.8690262,0.1406404 
					10.8585911,0.145375 10.8487988,0.1494635 10.8386822,0.1527992 10.8274946,0.1552738 10.817378,0.1577484 
					10.8065128,0.1588246 10.7953224,0.1595778 10.7840233,0.1595778 10.7813339,0.1607611 10.7813339,0.3109671 
					10.7868204,0.3075243 10.798872,0.3075243 10.8111391,0.3069862 10.8228683,0.3058024 10.8345938,0.3039734 10.846323,0.302252 
					10.8572969,0.2998845 10.8690262,0.2970873 10.8807554,0.2940746 10.891407,0.2906313 10.9022722,0.2870805 
					10.9135714,0.282992 10.9247618,0.2783654 10.9348755,0.2729852 10.9452057,0.2674978 10.9558582,0.2612573 
					10.9656496,0.2555545 10.9763021,0.2490985 10.9861984,0.2418898 10.9803896,0.2530799 10.9746866,0.26427 
					10.9681225,0.2749221 10.9615612,0.2852515 10.9544592,0.2952579 10.9468184,0.3052647 10.9386415,0.3145179 
					10.9299269,0.3238791 10.9217482,0.3321641 10.9123898,0.3409867 10.9022722,0.3490566 10.8924809,0.3573416 
					10.8826923,0.36369 10.8722544,0.3705762 10.8613882,0.3778929 10.8509502,0.3835953 10.8397589,0.38876 10.8283548,0.3942477 
					10.8171644,0.3987668 10.8053274,0.4023172 10.7930632,0.405868 10.7813339,0.4093113 10.7813339,0.6056767 
					10.7925243,0.6038473 10.8047924,0.6013727 10.8166265,0.5988981 10.8274946,0.5968536 10.8395462,0.5931953 
					10.8509502,0.5903976 10.8613882,0.5869547 10.8731146,0.5826507 10.884305,0.579315 10.884305,1.1706706 11.0673265,1.1706706 
					11.0673265,0.4602048 11.074646,0.4514893 11.0831442,0.4422361 11.0909986,0.4340587 11.0986395,0.42459 11.1062765,0.4153367 
					11.112627,0.4053303 11.1197262,0.3966148 11.1262903,0.386608 11.1330709,0.3760635 11.1388798,0.3659496 
					11.1453352,0.3561583 11.1502876,0.3453982 11.1563129,0.3351768 11.1614742,0.3245243 11.3622541,0.3245243 
					11.3622541,1.1706706 11.5793829,1.1706706 11.5793829,0.3245243 11.7120504,0.3245243 11.7120504,0.3800449 
					11.8597841,0.3800449 11.8597841,1.0471485 11.7052736,1.0471485 11.7052736,1.1706706 11.9094944,1.1706706 
					11.9185314,1.1706706 11.9270325,1.1694869 11.9359636,1.1681956 11.9442482,1.1664741 11.952424,1.1642146 
					11.9600658,1.1610943 11.9682417,1.1570054 11.9764175,1.1530244 11.9838419,1.1483978 11.9906225,1.1429105 
					11.9971867,1.1378534 12.003212,1.1319355 12.0099897,1.1260176 12.0149374,1.1190239 12.0201035,1.1121373 
					12.0250511,1.104283 12.0282793,1.0961055 12.0321541,1.0891118 12.0353813,1.0809344 12.0381794,1.0722189 
					12.0394697,1.0640415 12.0414066,1.055864 12.0419455,1.0471485 12.0424843,1.0382179 12.0424843,0.3800449 
					12.0987587,0.3800449 				"/>
			</g>
		</g>
	</g>
</g>
</svg>
